<mxfile host="Electron" agent="Mozilla/5.0 (Windows NT 10.0; Win64; x64) AppleWebKit/537.36 (KHTML, like Gecko) draw.io/28.0.6 Chrome/138.0.7204.100 Electron/37.2.3 Safari/537.36" version="28.0.6" pages="2">
  <diagram name="structure-1" id="DEVCBZ4mPQlXyvhFahEN">
    <mxGraphModel dx="1426" dy="875" grid="1" gridSize="10" guides="1" tooltips="1" connect="1" arrows="1" fold="1" page="1" pageScale="1" pageWidth="1169" pageHeight="827" math="0" shadow="0">
      <root>
        <mxCell id="0" />
        <mxCell id="1" parent="0" />
        <mxCell id="6CAyoXIFxjrAY0Hoec_J-1" value="" style="rounded=0;whiteSpace=wrap;html=1;" parent="1" vertex="1">
          <mxGeometry x="200" y="230" width="320" height="180" as="geometry" />
        </mxCell>
        <mxCell id="6CAyoXIFxjrAY0Hoec_J-2" value="new****" style="text;html=1;strokeColor=none;fillColor=none;align=center;verticalAlign=middle;whiteSpace=wrap;rounded=0;" parent="1" vertex="1">
          <mxGeometry x="190" y="200" width="100" height="30" as="geometry" />
        </mxCell>
        <mxCell id="6CAyoXIFxjrAY0Hoec_J-3" value="Terminal API" style="rounded=0;whiteSpace=wrap;html=1;" parent="1" vertex="1">
          <mxGeometry x="245" y="260" width="230" height="50" as="geometry" />
        </mxCell>
        <mxCell id="6CAyoXIFxjrAY0Hoec_J-4" value="Maintenance APP" style="rounded=0;whiteSpace=wrap;html=1;" parent="1" vertex="1">
          <mxGeometry x="245" y="330" width="230" height="50" as="geometry" />
        </mxCell>
        <mxCell id="49wuyDpWbZ9NFMFVXQN9-1" value="" style="endArrow=classic;startArrow=classic;html=1;rounded=0;entryX=0;entryY=0.5;entryDx=0;entryDy=0;" parent="1" source="6CAyoXIFxjrAY0Hoec_J-3" target="6CAyoXIFxjrAY0Hoec_J-4" edge="1">
          <mxGeometry width="50" height="50" relative="1" as="geometry">
            <mxPoint x="700" y="450" as="sourcePoint" />
            <mxPoint x="750" y="400" as="targetPoint" />
            <Array as="points">
              <mxPoint x="140" y="285" />
              <mxPoint x="140" y="355" />
            </Array>
          </mxGeometry>
        </mxCell>
        <mxCell id="49wuyDpWbZ9NFMFVXQN9-2" value="Intent | http" style="text;html=1;strokeColor=none;fillColor=none;align=center;verticalAlign=middle;whiteSpace=wrap;rounded=0;" parent="1" vertex="1">
          <mxGeometry x="50" y="305" width="100" height="30" as="geometry" />
        </mxCell>
        <mxCell id="rAhbS6h9FXxpzcEJkC9_-1" value="" style="endArrow=classic;html=1;rounded=0;entryX=1;entryY=0.5;entryDx=0;entryDy=0;exitX=0;exitY=0.5;exitDx=0;exitDy=0;" edge="1" parent="1" source="rAhbS6h9FXxpzcEJkC9_-2" target="6CAyoXIFxjrAY0Hoec_J-3">
          <mxGeometry width="50" height="50" relative="1" as="geometry">
            <mxPoint x="700" y="380" as="sourcePoint" />
            <mxPoint x="750" y="330" as="targetPoint" />
          </mxGeometry>
        </mxCell>
        <mxCell id="rAhbS6h9FXxpzcEJkC9_-2" value="利用するClient" style="rounded=0;whiteSpace=wrap;html=1;" vertex="1" parent="1">
          <mxGeometry x="670" y="260" width="170" height="50" as="geometry" />
        </mxCell>
        <mxCell id="rAhbS6h9FXxpzcEJkC9_-3" value="http" style="text;html=1;strokeColor=none;fillColor=none;align=center;verticalAlign=middle;whiteSpace=wrap;rounded=0;" vertex="1" parent="1">
          <mxGeometry x="570" y="290" width="100" height="30" as="geometry" />
        </mxCell>
      </root>
    </mxGraphModel>
  </diagram>
  <diagram name="structure-2" id="a3U389tXtCOUvh33nCHH">
    <mxGraphModel dx="1420" dy="822" grid="1" gridSize="10" guides="1" tooltips="1" connect="1" arrows="1" fold="1" page="1" pageScale="1" pageWidth="1169" pageHeight="827" math="0" shadow="0">
      <root>
        <mxCell id="IPOoNXxa7qIPMcCAzvw3-0" />
        <mxCell id="IPOoNXxa7qIPMcCAzvw3-1" parent="IPOoNXxa7qIPMcCAzvw3-0" />
        <mxCell id="7t2yxajKL8CXvS4v854e-0" value="" style="rounded=0;whiteSpace=wrap;html=1;" vertex="1" parent="IPOoNXxa7qIPMcCAzvw3-1">
          <mxGeometry x="200" y="230" width="320" height="180" as="geometry" />
        </mxCell>
        <mxCell id="7t2yxajKL8CXvS4v854e-1" value="new****" style="text;html=1;strokeColor=none;fillColor=none;align=center;verticalAlign=middle;whiteSpace=wrap;rounded=0;" vertex="1" parent="IPOoNXxa7qIPMcCAzvw3-1">
          <mxGeometry x="190" y="200" width="100" height="30" as="geometry" />
        </mxCell>
        <mxCell id="7t2yxajKL8CXvS4v854e-2" value="Terminal API" style="rounded=0;whiteSpace=wrap;html=1;" vertex="1" parent="IPOoNXxa7qIPMcCAzvw3-1">
          <mxGeometry x="245" y="260" width="230" height="50" as="geometry" />
        </mxCell>
        <mxCell id="7t2yxajKL8CXvS4v854e-3" value="マルチ決済APP" style="rounded=0;whiteSpace=wrap;html=1;" vertex="1" parent="IPOoNXxa7qIPMcCAzvw3-1">
          <mxGeometry x="245" y="330" width="230" height="50" as="geometry" />
        </mxCell>
        <mxCell id="7t2yxajKL8CXvS4v854e-4" value="" style="endArrow=classic;startArrow=classic;html=1;rounded=0;exitX=1;exitY=0.5;exitDx=0;exitDy=0;entryX=1;entryY=0.5;entryDx=0;entryDy=0;" edge="1" parent="IPOoNXxa7qIPMcCAzvw3-1" source="7t2yxajKL8CXvS4v854e-2" target="7t2yxajKL8CXvS4v854e-3">
          <mxGeometry width="50" height="50" relative="1" as="geometry">
            <mxPoint x="700" y="450" as="sourcePoint" />
            <mxPoint x="750" y="400" as="targetPoint" />
            <Array as="points">
              <mxPoint x="540" y="285" />
              <mxPoint x="540" y="355" />
            </Array>
          </mxGeometry>
        </mxCell>
        <mxCell id="7t2yxajKL8CXvS4v854e-5" value="？？" style="text;html=1;strokeColor=none;fillColor=none;align=center;verticalAlign=middle;whiteSpace=wrap;rounded=0;" vertex="1" parent="IPOoNXxa7qIPMcCAzvw3-1">
          <mxGeometry x="535" y="310" width="100" height="30" as="geometry" />
        </mxCell>
      </root>
    </mxGraphModel>
  </diagram>
</mxfile>
